<?xml version="1.0" encoding="UTF-8" standalone="no"?>
<!-- Created with Inkscape (http://www.inkscape.org/) -->

<svg
   width="31.408001mm"
   height="36.266495mm"
   viewBox="0 0 31.408005 36.266494"
   version="1.1"
   id="svg8"
   inkscape:version="1.3.2 (091e20ef0f, 2023-11-25, custom)"
   sodipodi:docname="UnFUG_Icon.svg"
   inkscape:export-filename="/home/weva/Documents/HFU/UnFUG/Trademarks/logo/pixel_export/UnFUG.png"
   inkscape:export-xdpi="600"
   inkscape:export-ydpi="600"
   xmlns:inkscape="http://www.inkscape.org/namespaces/inkscape"
   xmlns:sodipodi="http://sodipodi.sourceforge.net/DTD/sodipodi-0.dtd"
   xmlns:xlink="http://www.w3.org/1999/xlink"
   xmlns="http://www.w3.org/2000/svg"
   xmlns:svg="http://www.w3.org/2000/svg"
   xmlns:rdf="http://www.w3.org/1999/02/22-rdf-syntax-ns#"
   xmlns:cc="http://creativecommons.org/ns#"
   xmlns:dc="http://purl.org/dc/elements/1.1/">
  <defs
     id="defs2">
    <linearGradient
       inkscape:collect="always"
       id="linearGradient1584">
      <stop
         style="stop-color:#000064;stop-opacity:1"
         offset="0"
         id="stop1580" />
      <stop
         style="stop-color:#000000;stop-opacity:1"
         offset="1"
         id="stop1582" />
    </linearGradient>
    <linearGradient
       inkscape:collect="always"
       xlink:href="#linearGradient1584"
       id="linearGradient1586"
       x1="14.718527"
       y1="44.35157"
       x2="197.48128"
       y2="256.73175"
       gradientUnits="userSpaceOnUse" />
    <linearGradient
       inkscape:collect="always"
       xlink:href="#linearGradient1576-6"
       id="linearGradient2013"
       x1="4.3807726"
       y1="626.05548"
       x2="291.95105"
       y2="852.02295"
       gradientUnits="userSpaceOnUse"
       gradientTransform="matrix(0.42611656,0,0,0.42611656,46.269129,-152.65882)" />
    <linearGradient
       id="linearGradient1576-6"
       inkscape:collect="always">
      <stop
         id="stop1572-2"
         offset="0"
         style="stop-color:#ffff00;stop-opacity:1" />
      <stop
         id="stop1574-9"
         offset="1"
         style="stop-color:#ff6400;stop-opacity:1" />
    </linearGradient>
  </defs>
  <sodipodi:namedview
     id="base"
     pagecolor="#ffffff"
     bordercolor="#666666"
     borderopacity="1.0"
     inkscape:pageopacity="0.0"
     inkscape:pageshadow="2"
     inkscape:zoom="0.82658577"
     inkscape:cx="331.48405"
     inkscape:cy="299.42446"
     inkscape:document-units="mm"
     inkscape:current-layer="layer1"
     showgrid="false"
     showguides="true"
     inkscape:guide-bbox="true"
     inkscape:window-width="1918"
     inkscape:window-height="1057"
     inkscape:window-x="0"
     inkscape:window-y="0"
     inkscape:window-maximized="0"
     inkscape:pagecheckerboard="1"
     inkscape:showpageshadow="0"
     inkscape:deskcolor="#d1d1d1" />
  <metadata
     id="metadata5">
    <rdf:RDF>
      <cc:Work
         rdf:about="">
        <dc:format>image/svg+xml</dc:format>
        <dc:type
           rdf:resource="http://purl.org/dc/dcmitype/StillImage" />
      </cc:Work>
    </rdf:RDF>
  </metadata>
  <g
     inkscape:label="Layer 1"
     inkscape:groupmode="layer"
     id="layer1"
     transform="translate(-12.323613,-129.83109)">
    <g
       id="g1793">
      <g
         id="g4572"
         transform="matrix(0.17133778,0,0,0.17133778,9.8017733,122.12409)"
         inkscape:export-filename="/home/weva/g4572.png"
         inkscape:export-xdpi="600"
         inkscape:export-ydpi="600">
        <g
           id="g1625">
          <g
             id="g1773">
            <path
               sodipodi:type="star"
               style="opacity:1;vector-effect:none;fill:url(#linearGradient1586);fill-opacity:1;fill-rule:nonzero;stroke:none;stroke-width:5.52898;stroke-linecap:butt;stroke-linejoin:miter;stroke-miterlimit:4;stroke-dasharray:none;stroke-dashoffset:0;stroke-opacity:1;paint-order:stroke fill markers"
               id="path3717"
               sodipodi:sides="6"
               sodipodi:cx="106.37288"
               sodipodi:cy="150.81464"
               sodipodi:r1="105.83333"
               sodipodi:r2="91.65435"
               sodipodi:arg1="-2.6179939"
               sodipodi:arg2="-2.0943951"
               inkscape:flatsided="true"
               inkscape:rounded="0"
               inkscape:randomized="0"
               d="m 14.718527,97.897974 91.654353,-52.916666 91.65435,52.916662 0,105.83333 -91.65435,52.91666 -91.654351,-52.91666 z"
               inkscape:transform-center-x="-3.3842865e-06"
               inkscape:transform-center-y="3.3316528e-06" />
            <path
               fill="#D6A312"
               d="m 161.10328,183.52584 -0.004,0.0256 v 0.0298 c -0.86927,11.39436 -7.29511,17.59862 -17.16397,19.85277 -9.86034,2.25416 -23.23614,0.009 -36.59063,-6.97552 -0.004,0 -0.009,-0.004 -0.0128,-0.004 -14.777721,-7.82777 -32.355031,-7.04797 -43.634331,-9.4044 -5.63752,-1.17608 -9.31917,-2.94873 -11.00659,-6.23834 -1.68742,-3.29389 -1.72577,-9.03368 1.86213,-18.82158 l 0.017,-0.043 0.0128,-0.0426 c 1.7769,-5.47559 0.4602,-11.46679 -0.40055,-17.09153 -0.86076,-5.62005 -1.28261,-10.73771 0.63917,-14.30047 l 0.0171,-0.0341 c 2.45869,-4.73842 6.06364,-6.43436 10.53786,-8.03656 4.47848,-1.60646 9.78364,-2.86734 13.97236,-7.06927 l 0.0256,-0.0213 0.0213,-0.0213 c 3.87339,-4.08646 6.78377,-9.21264 10.18844,-12.84741 2.87203,-3.068041 5.74831,-5.100621 10.08192,-5.130441 0.0511,0.005 0.098,0.005 0.14914,0 0.758491,0.005 1.563851,0.0682 2.416081,0.20069 5.75257,0.86928 10.76797,4.891401 15.60013,11.445071 l 13.95105,25.42637 0.004,0.0128 0.009,0.009 c 3.71148,7.75106 11.55202,16.27765 18.19518,24.97469 6.64315,8.6932 11.78212,17.42433 11.11312,24.10584 z"
               id="path920"
               style="fill:url(#linearGradient2013);fill-opacity:1;stroke-width:1.54422" />
          </g>
        </g>
      </g>
    </g>
  </g>
</svg>
